<svg version="1.1" id="Layer_1" xmlns="http://www.w3.org/2000/svg" xmlns:xlink="http://www.w3.org/1999/xlink" x="0px" y="0px"
	 width="100%" viewBox="0 0 512 512" enable-background="new 0 0 512 512" xml:space="preserve">
<path fill="#000000" opacity="1.000000" stroke="none" 
	d="
M258.000000,0.999999 
	C342.963165,1.000000 427.926361,1.000000 512.944763,1.000000 
	C512.944763,171.555878 512.944763,342.111755 512.944763,513.000000 
	C434.978302,513.000000 356.956116,513.000000 278.528290,512.622681 
	C278.941650,511.829498 279.719696,511.274994 280.585999,511.018707 
	C292.064972,507.622833 303.556335,504.268799 315.369659,500.796509 
	C334.892761,491.774506 351.381226,479.132233 366.388184,463.884155 
	C369.472626,460.284302 372.525116,457.030029 375.012848,453.389801 
	C381.192566,444.347443 387.114563,435.128998 393.422485,425.814240 
	C402.262451,413.153931 407.644806,399.334808 409.919586,384.445190 
	C411.933624,371.262146 413.218384,357.967712 414.819000,344.452454 
	C414.780823,343.824402 414.748718,343.466309 414.820892,342.669922 
	C414.293518,331.669434 413.691742,321.105316 413.021606,310.545563 
	C412.382721,300.479126 411.776947,290.408508 410.940948,280.357697 
	C410.618378,276.479492 409.701965,272.650696 409.041016,268.370361 
	C408.535950,264.017792 408.171143,260.073853 407.535461,256.174072 
	C403.634216,232.240524 396.322723,209.242432 388.278290,186.450226 
	C385.864746,179.611877 383.416107,172.785904 380.882690,165.597992 
	C380.669800,165.021744 380.557770,164.801788 380.328003,164.246078 
	C369.753296,135.689270 354.050354,110.276192 337.853088,84.741508 
	C332.435883,77.221703 327.211273,69.975410 321.885040,62.804585 
	C309.202332,45.729458 294.735687,30.381866 277.923370,17.273258 
	C271.162811,12.002025 264.634186,6.433322 258.000000,0.999999 
z"/>
<path fill="#000000" opacity="1.000000" stroke="none" 
	d="
M234.000000,513.000000 
	C156.367157,513.000000 78.734306,513.000000 1.050732,513.000000 
	C1.050732,342.441498 1.050732,171.882965 1.050732,1.000000 
	C84.688400,1.000000 168.377228,1.000000 252.490753,1.345110 
	C252.165344,2.519628 251.505859,3.459284 250.651306,4.161590 
	C240.926910,12.153323 230.574753,19.493414 221.580582,28.232592 
	C210.778442,38.728497 200.772659,50.112267 191.101624,61.679756 
	C184.769226,69.253937 179.642227,77.835899 173.680725,86.138397 
	C160.969757,106.329491 148.139389,126.120689 138.664001,147.792419 
	C136.214691,153.394379 134.167557,159.172180 131.810120,165.174713 
	C131.590469,165.910339 131.496384,166.340454 131.109192,166.930573 
	C120.733315,193.303085 111.994186,219.939575 106.173027,247.445450 
	C104.679718,254.501602 104.120193,261.755371 102.938843,269.295837 
	C101.811371,279.523560 100.579941,289.356689 100.011848,299.227997 
	C99.166054,313.924988 98.788704,328.648987 98.196686,343.608704 
	C98.117355,344.180756 98.081642,344.508667 98.051498,345.310547 
	C98.683937,353.512756 98.758171,361.348541 100.125656,368.951752 
	C102.369926,381.429962 104.746811,393.973785 108.452255,406.065674 
	C110.623451,413.150848 115.475990,419.414307 119.088394,426.405701 
	C119.731613,428.044861 120.261330,429.433807 121.108833,430.589752 
	C129.369064,441.856323 137.682373,453.083954 146.154114,464.588837 
	C161.757706,478.980194 177.621262,492.495697 197.413940,501.108276 
	C207.983246,504.266998 218.239883,507.212585 228.450577,510.309692 
	C230.393616,510.899078 232.154877,512.087769 234.000000,513.000000 
z"/>
<path fill="#070707" opacity="1.000000" stroke="none" 
	d="
M257.000000,513.000000 
	C256.555664,513.000000 256.111328,513.000000 255.203125,512.689087 
	C239.507584,500.877167 224.275909,489.376099 209.051483,477.697662 
	C209.058731,477.520325 209.076218,477.163940 209.384583,476.980194 
	C223.539047,470.163574 237.400879,463.562958 251.202332,456.838501 
	C252.344635,456.281921 253.078293,454.886658 254.383575,453.995697 
	C255.809814,454.292847 256.854279,454.475372 258.036865,454.941345 
	C273.051544,462.282349 287.928162,469.339874 302.841187,476.668060 
	C302.934570,477.297699 302.991577,477.656708 302.739563,478.154877 
	C287.287048,489.862732 272.143524,501.431366 257.000000,513.000000 
z"/>
<path fill="#1A1A1A" opacity="1.000000" stroke="none" 
	d="
M257.666687,0.999999 
	C264.634186,6.433322 271.162811,12.002025 277.923370,17.273258 
	C294.735687,30.381866 309.202332,45.729458 321.885040,62.804585 
	C327.211273,69.975410 332.435883,77.221703 337.718719,85.046158 
	C336.147156,87.103653 334.634460,88.636787 332.967834,89.978752 
	C325.006226,96.389473 317.002808,102.748329 308.758606,109.106499 
	C308.334839,109.056000 308.166809,109.024643 307.736511,108.774048 
	C297.318237,87.421753 287.189972,66.275299 276.996643,45.160244 
	C270.066986,30.805710 263.046265,16.495159 256.044281,1.874008 
	C256.014862,1.388722 256.007416,1.194361 256.000000,1.000000 
	C256.444458,1.000000 256.888885,1.000000 257.666687,0.999999 
z"/>
<path fill="#0E0E0E" opacity="1.000000" stroke="none" 
	d="
M255.625000,1.000000 
	C256.007416,1.194361 256.014862,1.388722 255.988312,2.195293 
	C255.855652,3.455879 255.756973,4.104255 255.354538,4.887775 
	C254.094788,6.555089 252.986160,8.013647 252.206390,9.630779 
	C244.107925,26.425940 236.095947,43.262821 227.992538,60.055584 
	C220.112106,76.386246 212.153046,92.678963 203.937073,109.174820 
	C203.436478,109.458466 203.227280,109.555634 202.954437,109.336090 
	C193.252289,101.335083 183.613800,93.650787 173.975327,85.966484 
	C179.642227,77.835899 184.769226,69.253937 191.101624,61.679756 
	C200.772659,50.112267 210.778442,38.728497 221.580582,28.232592 
	C230.574753,19.493414 240.926910,12.153323 250.651306,4.161590 
	C251.505859,3.459284 252.165344,2.519628 252.957733,1.345110 
	C253.750000,1.000000 254.500000,1.000000 255.625000,1.000000 
z"/>
<path fill="#454545" opacity="1.000000" stroke="none" 
	d="
M209.044220,477.875000 
	C224.275909,489.376099 239.507584,500.877167 254.869629,512.689087 
	C248.312363,513.000000 241.624710,513.000000 234.468536,513.000000 
	C232.154877,512.087769 230.393616,510.899078 228.450577,510.309692 
	C218.239883,507.212585 207.983246,504.266998 197.432571,500.758331 
	C201.096466,492.790253 205.070343,485.332611 209.044220,477.875000 
z"/>
<path fill="#272727" opacity="1.000000" stroke="none" 
	d="
M257.468536,513.000000 
	C272.143524,501.431366 287.287048,489.862732 302.999084,478.368103 
	C307.393280,485.929535 311.218964,493.416962 315.044647,500.904358 
	C303.556335,504.268799 292.064972,507.622833 280.585999,511.018707 
	C279.719696,511.274994 278.941650,511.829498 278.061310,512.622681 
	C271.312347,513.000000 264.624725,513.000000 257.468536,513.000000 
z"/>
<path fill="#707070" opacity="1.000000" stroke="none" 
	d="
M307.998749,108.993279 
	C308.166809,109.024643 308.334839,109.056000 308.912476,109.394211 
	C310.271362,110.630692 311.141602,111.661514 312.181854,112.474846 
	C328.647369,125.348030 345.086273,138.256195 361.642334,151.012192 
	C367.762207,155.727417 374.169525,160.069550 380.445770,164.581848 
	C380.557770,164.801788 380.669800,165.021744 380.628662,165.999878 
	C379.939972,173.382812 379.448914,180.011490 378.861389,186.631638 
	C376.246094,216.099289 373.603149,245.564484 370.985535,275.011047 
	C371.000824,274.991486 371.047729,274.975159 370.718628,274.883850 
	C367.781952,272.871368 365.174316,270.950195 362.387054,269.038849 
	C361.946198,268.914215 361.867706,268.709686 362.251465,268.108276 
	C359.542847,264.863983 356.554779,261.946503 353.387054,259.038849 
	C352.946198,258.914215 352.867706,258.709686 353.251373,258.109375 
	C350.328979,254.551056 347.127167,251.318420 343.963562,248.051453 
	C344.001709,248.017120 343.916992,248.072586 344.170258,247.763016 
	C341.595825,243.897888 338.928162,240.199478 335.908020,236.815689 
	C329.050385,229.132355 322.019379,221.603745 314.775330,213.811661 
	C313.978363,212.055511 313.464966,210.499924 312.970917,208.492874 
	C312.606476,199.583664 312.270813,191.123428 311.829865,182.668655 
	C310.567993,158.474182 309.263397,134.281921 307.968445,109.814636 
	C307.973724,109.358086 307.986237,109.175682 307.998749,108.993279 
z"/>
<path fill="#737373" opacity="1.000000" stroke="none" 
	d="
M414.716644,343.108246 
	C414.748718,343.466309 414.780823,343.824402 414.501221,344.577698 
	C408.658173,352.611267 403.025940,360.178986 397.617126,367.903168 
	C387.352661,382.561615 377.216187,397.309692 366.805115,412.057404 
	C366.583679,412.094269 366.136200,412.058105 366.090820,411.679688 
	C362.197052,401.822449 358.423187,392.312561 354.481140,382.872894 
	C349.728546,371.492371 344.833221,360.171478 340.073181,348.522217 
	C340.389008,347.434540 340.631317,346.649475 340.966980,345.515625 
	C344.110535,338.039917 347.180817,330.921539 350.206757,323.784393 
	C356.816467,308.194336 363.403625,292.594727 370.073975,276.716431 
	C370.447876,275.947601 370.747833,275.461395 371.047729,274.975159 
	C371.047729,274.975159 371.000824,274.991486 371.226624,275.019592 
	C371.452393,275.047729 371.926208,275.138336 372.003357,275.472076 
	C382.891815,293.467529 393.628265,311.175781 404.562164,328.761292 
	C407.650269,333.728119 411.315887,338.335815 414.716644,343.108246 
z"/>
<path fill="#454545" opacity="1.000000" stroke="none" 
	d="
M366.136200,412.058105 
	C366.136200,412.058105 366.583679,412.094269 367.004639,412.331146 
	C375.997070,417.039093 384.568542,421.510162 393.140045,425.981232 
	C387.114563,435.128998 381.192566,444.347443 375.012848,453.389801 
	C372.525116,457.030029 369.472626,460.284302 365.964172,463.869934 
	C355.052185,466.107269 344.865997,468.254913 334.650421,470.252014 
	C324.448547,472.246429 314.217194,474.090179 304.004791,475.600525 
	C306.719971,465.129120 309.506958,455.077240 312.113434,444.978760 
	C314.174408,436.993866 316.013611,428.951691 318.124146,420.684021 
	C318.909180,419.898468 319.521362,419.363800 320.540161,418.837097 
	C325.211151,418.228912 329.479004,417.636047 333.739166,416.992157 
	C344.540009,415.359741 355.337433,413.704315 366.136200,412.058105 
z"/>
<path fill="#131313" opacity="1.000000" stroke="none" 
	d="
M371.926208,275.138336 
	C371.926208,275.138336 371.452393,275.047729 371.211304,275.039154 
	C373.603149,245.564484 376.246094,216.099289 378.861389,186.631638 
	C379.448914,180.011490 379.939972,173.382812 380.729492,166.356155 
	C383.416107,172.785904 385.864746,179.611877 388.278290,186.450226 
	C396.322723,209.242432 403.634216,232.240524 407.535461,256.174072 
	C408.171143,260.073853 408.535950,264.017792 408.612427,268.427124 
	C396.108002,270.988037 384.017120,273.063171 371.926208,275.138336 
z"/>
<path fill="#4F4F4F" opacity="1.000000" stroke="none" 
	d="
M380.328003,164.246078 
	C374.169525,160.069550 367.762207,155.727417 361.642334,151.012192 
	C345.086273,138.256195 328.647369,125.348030 312.181854,112.474846 
	C311.141602,111.661514 310.271362,110.630692 309.168152,109.413345 
	C317.002808,102.748329 325.006226,96.389473 332.967834,89.978752 
	C334.634460,88.636787 336.147156,87.103653 337.865173,85.353966 
	C354.050354,110.276192 369.753296,135.689270 380.328003,164.246078 
z"/>
<path fill="#1A1A1A" opacity="1.000000" stroke="none" 
	d="
M393.422485,425.814240 
	C384.568542,421.510162 375.997070,417.039093 367.226044,412.294281 
	C377.216187,397.309692 387.352661,382.561615 397.617126,367.903168 
	C403.025940,360.178986 408.658173,352.611267 414.507324,344.847656 
	C413.218384,357.967712 411.933624,371.262146 409.919586,384.445190 
	C407.644806,399.334808 402.262451,413.153931 393.422485,425.814240 
z"/>
<path fill="#4F4F4F" opacity="1.000000" stroke="none" 
	d="
M372.003357,275.472076 
	C384.017120,273.063171 396.108002,270.988037 408.627502,268.856140 
	C409.701965,272.650696 410.618378,276.479492 410.940948,280.357697 
	C411.776947,290.408508 412.382721,300.479126 413.021606,310.545563 
	C413.691742,321.105316 414.293518,331.669434 414.820892,342.669922 
	C411.315887,338.335815 407.650269,333.728119 404.562164,328.761292 
	C393.628265,311.175781 382.891815,293.467529 372.003357,275.472076 
z"/>
<path fill="#3A3A3A" opacity="1.000000" stroke="none" 
	d="
M303.998779,476.000000 
	C314.217194,474.090179 324.448547,472.246429 334.650421,470.252014 
	C344.865997,468.254913 355.052185,466.107269 365.675232,464.039825 
	C351.381226,479.132233 334.892761,491.774506 315.369659,500.796539 
	C311.218964,493.416962 307.393280,485.929535 303.308075,478.228882 
	C302.991577,477.656708 302.934570,477.297699 303.131714,476.543396 
	C303.590210,476.098724 303.794495,476.049347 303.998779,476.000000 
z"/>
<path fill="#838383" opacity="1.000000" stroke="none" 
	d="
M203.018097,109.652794 
	C203.227280,109.555634 203.436478,109.458466 203.977188,109.473679 
	C204.216232,109.764236 204.123734,109.942413 204.090683,110.577789 
	C203.161133,129.632736 202.136703,148.228683 201.194641,166.828827 
	C200.471390,181.108582 199.851959,195.393570 199.047333,209.937775 
	C198.611481,210.710831 198.314651,211.222336 197.722931,211.923065 
	C186.553360,224.163605 175.724487,236.256668 164.788391,248.251984 
	C157.106232,256.678162 149.278091,264.971252 141.328735,272.906494 
	C140.663071,267.381317 140.163727,262.275177 139.708145,257.165131 
	C138.121735,239.371536 136.585892,221.573318 134.961273,203.783218 
	C133.834106,191.440247 132.592667,179.107742 131.402283,166.770554 
	C131.496384,166.340454 131.590469,165.910339 132.144897,165.120819 
	C139.455368,159.463898 146.335709,154.204865 153.149704,148.861252 
	C169.788849,135.812607 186.397293,122.724823 203.018097,109.652794 
z"/>
<path fill="#969696" opacity="1.000000" stroke="none" 
	d="
M98.074196,344.839661 
	C98.081642,344.508667 98.117355,344.180756 98.471512,343.395081 
	C107.383347,328.968445 116.051613,315.031189 124.609497,301.026489 
	C129.872025,292.414520 134.965851,283.699463 140.328293,275.009735 
	C140.521149,274.988770 140.902771,274.918762 141.035004,275.260773 
	C145.810699,286.421722 150.395355,297.266388 155.112885,308.052917 
	C160.686005,320.795837 166.373962,333.488556 172.002319,346.527771 
	C172.000488,347.718719 172.008469,348.584869 171.713867,349.688293 
	C165.246582,364.836731 159.136871,379.770996 152.889587,394.647491 
	C150.458801,400.435913 147.717758,406.094025 145.032318,411.483459 
	C129.322479,389.050201 113.698341,366.944946 98.074196,344.839661 
z"/>
<path fill="#737373" opacity="1.000000" stroke="none" 
	d="
M145.980591,464.322632 
	C137.682373,453.083954 129.369064,441.856323 121.108833,430.589752 
	C120.261330,429.433807 119.731613,428.044861 119.434845,426.341003 
	C128.169449,421.529297 136.523636,417.140625 145.339996,412.772491 
	C161.254807,414.865295 176.707443,416.937592 192.438538,418.982422 
	C193.181458,419.220612 193.645950,419.486298 193.816666,419.989075 
	C193.534042,421.179169 193.342819,422.187805 193.587128,423.076691 
	C196.533752,433.797424 199.627274,444.478302 202.510010,455.215912 
	C204.438690,462.399811 206.091675,469.657684 207.485336,476.871490 
	C194.991989,474.215485 182.900955,471.475891 170.763870,468.958252 
	C162.536270,467.251617 154.243973,465.856873 145.980591,464.322632 
z"/>
<path fill="#333333" opacity="1.000000" stroke="none" 
	d="
M140.902771,274.918762 
	C140.902771,274.918762 140.521149,274.988770 139.920471,274.947571 
	C127.257088,272.910339 115.194389,270.914337 103.131683,268.918335 
	C104.120193,261.755371 104.679718,254.501602 106.173027,247.445450 
	C111.994186,219.939575 120.733315,193.303085 131.109192,166.930573 
	C132.592667,179.107742 133.834106,191.440247 134.961273,203.783218 
	C136.585892,221.573318 138.121735,239.371536 139.708145,257.165131 
	C140.163727,262.275177 140.663071,267.381317 141.211411,273.166504 
	C141.154572,274.202118 141.028671,274.560425 140.902771,274.918762 
z"/>
<path fill="#1A1A1A" opacity="1.000000" stroke="none" 
	d="
M202.954437,109.336090 
	C186.397293,122.724823 169.788849,135.812607 153.149704,148.861252 
	C146.335709,154.204865 139.455368,159.463898 132.270447,164.815308 
	C134.167557,159.172180 136.214691,153.394379 138.664001,147.792419 
	C148.139389,126.120689 160.969757,106.329491 173.680725,86.138397 
	C183.613800,93.650787 193.252289,101.335083 202.954437,109.336090 
z"/>
<path fill="#0E0E0E" opacity="1.000000" stroke="none" 
	d="
M144.877823,412.751953 
	C136.523636,417.140625 128.169449,421.529297 119.468811,425.982697 
	C115.475990,419.414307 110.623451,413.150848 108.452255,406.065674 
	C104.746811,393.973785 102.369926,381.429962 100.125656,368.951752 
	C98.758171,361.348541 98.683937,353.512756 98.051498,345.310547 
	C113.698341,366.944946 129.322479,389.050201 144.950287,411.713043 
	C144.953964,412.270599 144.877823,412.751953 144.877823,412.751953 
z"/>
<path fill="#1A1A1A" opacity="1.000000" stroke="none" 
	d="
M102.938843,269.295837 
	C115.194389,270.914337 127.257088,272.910339 139.727615,274.968506 
	C134.965851,283.699463 129.872025,292.414520 124.609497,301.026489 
	C116.051613,315.031189 107.383347,328.968445 98.486847,343.147827 
	C98.788704,328.648987 99.166054,313.924988 100.011848,299.227997 
	C100.579941,289.356689 101.811371,279.523560 102.938843,269.295837 
z"/>
<path fill="#1A1A1A" opacity="1.000000" stroke="none" 
	d="
M146.154114,464.588806 
	C154.243973,465.856873 162.536270,467.251617 170.763870,468.958252 
	C182.900955,471.475891 194.991989,474.215485 207.785065,476.953369 
	C208.670395,477.085480 208.873306,477.124725 209.076218,477.163940 
	C209.076218,477.163940 209.058731,477.520325 209.051483,477.697662 
	C205.070343,485.332611 201.096466,492.790253 197.103943,500.597839 
	C177.621262,492.495697 161.757706,478.980194 146.154114,464.588806 
z"/>
<path fill="#A1A1A1" opacity="1.000000" stroke="none" 
	d="
M194.110443,419.751953 
	C193.645950,419.486298 193.181458,419.220612 192.380264,418.587036 
	C190.345871,412.147675 188.711731,406.057617 186.938354,400.008392 
	C181.995285,383.146881 176.994476,366.302307 172.016464,349.451050 
	C172.008469,348.584869 172.000488,347.718719 172.149490,346.147400 
	C172.481522,344.976013 172.727890,344.523560 172.821411,344.041504 
	C179.132858,311.509644 185.467880,278.982239 191.712936,246.437576 
	C193.928528,234.891541 195.922638,223.302994 198.017838,211.733856 
	C198.314651,211.222336 198.611481,210.710831 199.293213,209.761017 
	C218.184753,185.263153 236.691376,161.203598 255.532532,137.152283 
	C256.651031,137.726883 257.624542,138.146927 258.191193,138.881042 
	C270.854156,155.286774 283.418365,171.768951 296.124146,188.141327 
	C301.591156,195.185974 307.334045,202.016525 312.951599,208.944336 
	C313.464966,210.499924 313.978363,212.055511 314.750366,214.174286 
	C315.010101,215.464447 315.011200,216.191406 315.002014,217.338272 
	C319.176117,240.193222 323.281494,262.643341 327.568909,285.058685 
	C331.268250,304.399292 335.155121,323.704254 339.043762,343.007904 
	C339.251862,344.041016 340.245605,344.915863 340.873627,345.864380 
	C340.631317,346.649475 340.389008,347.434540 339.965149,348.895020 
	C336.319977,361.497681 332.800903,373.409149 329.408875,385.356720 
	C326.246857,396.494263 323.219940,407.670166 320.133575,418.829163 
	C319.521362,419.363800 318.909180,419.898468 317.765015,420.715759 
	C301.856934,429.418396 286.443512,437.771545 271.127502,446.299561 
	C266.577301,448.833160 262.300720,451.858124 257.898743,454.657928 
	C256.854279,454.475372 255.809814,454.292847 254.260712,453.683136 
	C233.874207,442.087952 213.992325,430.919952 194.110443,419.751953 
z"/>
<path fill="#3A3A3A" opacity="1.000000" stroke="none" 
	d="
M193.816681,419.989075 
	C213.992325,430.919952 233.874207,442.087952 253.878952,453.568512 
	C253.078293,454.886658 252.344635,456.281921 251.202332,456.838501 
	C237.400879,463.562958 223.539047,470.163574 209.384583,476.980194 
	C208.873306,477.124725 208.670395,477.085480 208.167755,476.964355 
	C206.091675,469.657684 204.438690,462.399811 202.510010,455.215912 
	C199.627274,444.478302 196.533752,433.797424 193.587128,423.076691 
	C193.342819,422.187805 193.534042,421.179169 193.816681,419.989075 
z"/>
<path fill="#656565" opacity="1.000000" stroke="none" 
	d="
M258.036865,454.941406 
	C262.300720,451.858124 266.577301,448.833160 271.127502,446.299561 
	C286.443512,437.771545 301.856934,429.418396 317.592194,420.966675 
	C316.013611,428.951691 314.174408,436.993866 312.113434,444.978760 
	C309.506958,455.077240 306.719971,465.129120 304.004791,475.600525 
	C303.794495,476.049347 303.590210,476.098724 303.095337,476.272736 
	C287.928162,469.339874 273.051544,462.282349 258.036865,454.941406 
z"/>
<path fill="#5F5F5F" opacity="1.000000" stroke="none" 
	d="
M307.736511,108.774048 
	C307.986237,109.175682 307.973724,109.358086 307.598785,109.723381 
	C300.293396,113.374901 293.335144,116.813202 286.411224,120.319321 
	C276.244934,125.467308 266.103180,130.663742 255.966537,135.381210 
	C255.988342,93.185562 255.998520,51.448250 255.986313,9.710946 
	C255.985825,8.058144 255.772461,6.405402 255.658310,4.752631 
	C255.756973,4.104255 255.855652,3.455879 256.010284,2.486218 
	C263.046265,16.495159 270.066986,30.805710 276.996643,45.160244 
	C287.189972,66.275299 297.318237,87.421753 307.736511,108.774048 
z"/>
<path fill="#3A3A3A" opacity="1.000000" stroke="none" 
	d="
M255.354538,4.887776 
	C255.772461,6.405402 255.985825,8.058144 255.986313,9.710946 
	C255.998520,51.448250 255.988342,93.185562 255.726440,135.432312 
	C255.470764,135.941772 254.988556,136.034042 254.713364,135.828094 
	C239.000748,127.417595 223.574951,119.190956 208.103027,111.051994 
	C206.912033,110.425468 205.396118,110.416565 204.031235,110.120590 
	C204.123734,109.942413 204.216232,109.764236 204.268616,109.287201 
	C212.153046,92.678963 220.112106,76.386246 227.992538,60.055584 
	C236.095947,43.262821 244.107925,26.425940 252.206390,9.630779 
	C252.986160,8.013647 254.094788,6.555089 255.354538,4.887776 
z"/>
<path fill="#E6E6E6" opacity="1.000000" stroke="none" 
	d="
M340.966980,345.515625 
	C340.245605,344.915863 339.251862,344.041016 339.043762,343.007904 
	C335.155121,323.704254 331.268250,304.399292 327.568909,285.058685 
	C323.281494,262.643341 319.176117,240.193222 315.332214,217.452621 
	C325.087463,227.455566 334.502228,237.764084 343.916992,248.072586 
	C343.916992,248.072586 344.001709,248.017120 344.000488,248.398117 
	C346.990173,251.997757 349.981079,255.216415 352.971985,258.435059 
	C352.867706,258.709686 352.946198,258.914215 353.586548,259.339355 
	C356.634460,262.565033 359.303223,265.500061 361.971985,268.435059 
	C361.867706,268.709686 361.946198,268.914215 362.586426,269.338257 
	C365.310303,272.084930 367.655151,274.541962 370.000000,276.999023 
	C363.403625,292.594727 356.816467,308.194336 350.206757,323.784393 
	C347.180817,330.921539 344.110535,338.039917 340.966980,345.515625 
z"/>
<path fill="#D1D1D1" opacity="1.000000" stroke="none" 
	d="
M254.988556,136.034042 
	C254.988556,136.034042 255.470764,135.941772 255.710861,135.890656 
	C266.103180,130.663742 276.244934,125.467308 286.411224,120.319321 
	C293.335144,116.813202 300.293396,113.374901 307.605988,109.997536 
	C309.263397,134.281921 310.567993,158.474182 311.829865,182.668655 
	C312.270813,191.123428 312.606476,199.583664 312.970947,208.492874 
	C307.334045,202.016525 301.591156,195.185974 296.124146,188.141327 
	C283.418365,171.768951 270.854156,155.286774 258.191193,138.881042 
	C257.624542,138.146927 256.651031,137.726883 255.475464,136.875458 
	C255.052109,136.404938 255.020340,136.219482 254.988556,136.034042 
z"/>
<path fill="#000000" opacity="1.000000" stroke="none" 
	d="
M344.170258,247.763016 
	C334.502228,237.764084 325.087463,227.455566 315.342499,217.032700 
	C315.011200,216.191406 315.010101,215.464447 315.033936,214.374878 
	C322.019379,221.603745 329.050385,229.132355 335.908020,236.815689 
	C338.928162,240.199478 341.595825,243.897888 344.170258,247.763016 
z"/>
<path fill="#000000" opacity="1.000000" stroke="none" 
	d="
M353.251373,258.109375 
	C349.981079,255.216415 346.990173,251.997757 343.962341,248.432434 
	C347.127167,251.318420 350.328979,254.551056 353.251373,258.109375 
z"/>
<path fill="#000000" opacity="1.000000" stroke="none" 
	d="
M362.251465,268.108276 
	C359.303223,265.500061 356.634460,262.565033 353.766205,259.329529 
	C356.554779,261.946503 359.542847,264.863983 362.251465,268.108276 
z"/>
<path fill="#000000" opacity="1.000000" stroke="none" 
	d="
M370.073975,276.716431 
	C367.655151,274.541962 365.310303,272.084930 362.766113,269.328430 
	C365.174316,270.950195 367.781952,272.871368 370.718658,274.883850 
	C370.747833,275.461395 370.447876,275.947601 370.073975,276.716431 
z"/>
<path fill="#FDFDFD" opacity="1.000000" stroke="none" 
	d="
M320.540161,418.837097 
	C323.219940,407.670166 326.246857,396.494263 329.408875,385.356720 
	C332.800903,373.409149 336.319977,361.497681 339.891663,349.197601 
	C344.833221,360.171478 349.728546,371.492371 354.481140,382.872894 
	C358.423187,392.312561 362.197052,401.822449 366.090820,411.679688 
	C355.337433,413.704315 344.540009,415.359741 333.739166,416.992157 
	C329.479004,417.636047 325.211151,418.228912 320.540161,418.837097 
z"/>
<path fill="#E3E3E3" opacity="1.000000" stroke="none" 
	d="
M197.722946,211.923065 
	C195.922638,223.302994 193.928528,234.891541 191.712936,246.437576 
	C185.467880,278.982239 179.132858,311.509644 172.821411,344.041504 
	C172.727890,344.523560 172.481522,344.976013 172.159302,345.822632 
	C166.373962,333.488556 160.686005,320.795837 155.112885,308.052917 
	C150.395355,297.266388 145.810699,286.421722 141.035004,275.260773 
	C141.028671,274.560425 141.154572,274.202118 141.397797,273.583771 
	C149.278091,264.971252 157.106232,256.678162 164.788391,248.251984 
	C175.724487,236.256668 186.553360,224.163605 197.722946,211.923065 
z"/>
<path fill="#FDFDFD" opacity="1.000000" stroke="none" 
	d="
M254.713364,135.828094 
	C255.020340,136.219482 255.052109,136.404938 255.140945,136.867203 
	C236.691376,161.203598 218.184753,185.263153 199.432236,209.499481 
	C199.851959,195.393570 200.471390,181.108582 201.194641,166.828827 
	C202.136703,148.228683 203.161133,129.632736 204.090683,110.577782 
	C205.396118,110.416565 206.912033,110.425468 208.103027,111.051994 
	C223.574951,119.190956 239.000748,127.417595 254.713364,135.828094 
z"/>
<path fill="#333333" opacity="1.000000" stroke="none" 
	d="
M171.713867,349.688293 
	C176.994476,366.302307 181.995285,383.146881 186.938354,400.008392 
	C188.711731,406.057617 190.345871,412.147675 192.101837,418.614502 
	C176.707443,416.937592 161.254807,414.865295 145.339996,412.772491 
	C144.877823,412.751953 144.953964,412.270599 145.035995,412.041016 
	C147.717758,406.094025 150.458801,400.435913 152.889587,394.647491 
	C159.136871,379.770996 165.246582,364.836731 171.713867,349.688293 
z"/>
</svg>